name D:\school\WTK\thesis\model\3dpredictsim\Results\Batchsim_tmt_linear_v2\Pog_s1_tmt_aCst_d02_k1000_ig24_pas.mot
datacolumns 128
datarows 4
range 0.00000000 0.03228661
endheader
time	pelvis_tilt	pelvis_list	pelvis_rotation	pelvis_tx	pelvis_ty	pelvis_tz	hip_flexion_l	hip_adduction_l	hip_rotation_l	hip_flexion_r	hip_adduction_r	hip_rotation_r	knee_angle_l	knee_angle_r	ankle_angle_l	ankle_angle_r	subtalar_angle_l	subtalar_angle_r	tmt_angle_l	tmt_angle_r	mtp_angle_l	mtp_angle_r	lumbar_extension	lumbar_bending	lumbar_rotation	arm_flex_l	arm_add_l	arm_rot_l	arm_flex_r	arm_add_r	arm_rot_r	elbow_flex_l	elbow_flex_r	pro_sup_l	pro_sup_r	glut_med1_l/activation	glut_med2_l/activation	glut_med3_l/activation	glut_min1_l/activation	glut_min2_l/activation	glut_min3_l/activation	semimem_l/activation	semiten_l/activation	bifemlh_l/activation	bifemsh_l/activation	sar_l/activation	add_long_l/activation	add_brev_l/activation	add_mag1_l/activation	add_mag2_l/activation	add_mag3_l/activation	tfl_l/activation	pect_l/activation	grac_l/activation	glut_max1_l/activation	glut_max2_l/activation	glut_max3_l/activation	iliacus_l/activation	psoas_l/activation	quad_fem_l/activation	gem_l/activation	peri_l/activation	rect_fem_l/activation	vas_med_l/activation	vas_int_l/activation	vas_lat_l/activation	med_gas_l/activation	lat_gas_l/activation	soleus_l/activation	tib_post_l/activation	flex_dig_l/activation	flex_hal_l/activation	tib_ant_l/activation	per_brev_l/activation	per_long_l/activation	per_tert_l/activation	ext_dig_l/activation	ext_hal_l/activation	ercspn_l/activation	intobl_l/activation	extobl_l/activation	glut_med1_r/activation	glut_med2_r/activation	glut_med3_r/activation	glut_min1_r/activation	glut_min2_r/activation	glut_min3_r/activation	semimem_r/activation	semiten_r/activation	bifemlh_r/activation	bifemsh_r/activation	sar_r/activation	add_long_r/activation	add_brev_r/activation	add_mag1_r/activation	add_mag2_r/activation	add_mag3_r/activation	tfl_r/activation	pect_r/activation	grac_r/activation	glut_max1_r/activation	glut_max2_r/activation	glut_max3_r/activation	iliacus_r/activation	psoas_r/activation	quad_fem_r/activation	gem_r/activation	peri_r/activation	rect_fem_r/activation	vas_med_r/activation	vas_int_r/activation	vas_lat_r/activation	med_gas_r/activation	lat_gas_r/activation	soleus_r/activation	tib_post_r/activation	flex_dig_r/activation	flex_hal_r/activation	tib_ant_r/activation	per_brev_r/activation	per_long_r/activation	per_tert_r/activation	ext_dig_r/activation	ext_hal_r/activation	ercspn_r/activation	intobl_r/activation	extobl_r/activation	
          0.00000000	         -2.92011534	          0.80710229	          5.00178336	          0.00000000	          0.87175226	         -0.00238822	        -18.16510528	          1.22465814	          5.91215129	         26.33163697	         -0.29006190	         -3.44642860	         -5.02256750	         -7.23405892	         -9.16204218	          5.71153762	          6.66935978	          3.65782754	          1.10142327	          0.03475936	         27.47568019	         -0.10383833	          0.56846009	         -3.11144004	         -1.64340348	          4.40262759	        -13.47288739	         13.81211642	         -8.14135410	        -13.45152686	         15.35637900	         24.21453293	         15.47410590	         86.51662706	         86.51662706	          0.26605554	          0.08646713	          0.07484970	          0.25580458	          0.15511789	          0.08899717	          0.05000075	          0.05000007	          0.05000006	          0.05000007	          0.09673224	          0.05390617	          0.05000008	          0.05000015	          0.05000052	          0.05000044	          0.22733018	          0.05000032	          0.05000017	          0.05000204	          0.05000126	          0.05000082	          0.36845090	          0.66425666	          0.05000013	          0.05000144	          0.05896847	          0.31514752	          0.05565769	          0.06249710	          0.05626940	          0.19892735	          0.28802189	          0.23608221	          0.23589394	          0.21463544	          0.29480736	          0.05000000	          0.08835484	          0.14641954	          0.05000007	          0.05000001	          0.05000005	          0.05000000	          0.05000000	          0.05000000	          0.06412038	          0.06688350	          0.05000054	          0.05000018	          0.05000030	          0.05005830	          0.06954569	          0.06954544	          0.13766401	          0.05000123	          0.05000020	          0.05000034	          0.06043338	          0.08453543	          0.12927016	          0.14406753	          0.05000074	          0.05000043	          0.05899454	          0.05896885	          0.11063838	          0.16203075	          0.05000002	          0.05000003	          0.06583515	          0.05896858	          0.05000114	          0.05000010	          0.05000038	          0.05000043	          0.05000030	          0.05000007	          0.05896825	          0.05000005	          0.05686970	          0.05896854	          0.05896852	          0.45854237	          0.30127468	          0.19669895	          0.16419406	          0.46796545	          0.24768366	          0.05128621	          0.14361602	          0.14184934	
          0.01076220	         -2.90403996	          0.86682485	          5.16138525	          0.01682104	          0.87037702	         -0.00224512	        -18.02540671	          1.08418940	          5.68754269	         25.91050084	         -0.14784367	         -3.22216227	         -7.06870857	         -7.15529020	         -9.86052604	          5.21300224	          7.75812469	          3.19549374	          1.02093610	          0.03632474	         28.36050350	         -0.07888014	          0.78130961	         -2.94317452	         -1.70310581	          4.19696721	        -13.50166565	         14.08990389	         -9.32875259	        -13.45168805	         15.22253854	         25.06989723	         15.50494149	         86.51662706	         86.51662706	          0.22559126	          0.07331638	          0.06346587	          0.21689938	          0.13152607	          0.07546164	          0.05000043	          0.05000004	          0.05000003	          0.05000007	          0.08202036	          0.13466045	          0.14300188	          0.05000450	          0.05000102	          0.05000013	          0.19275563	          0.11792988	          0.05896774	          0.05000059	          0.05000031	          0.05000033	          0.31241333	          0.60292699	          0.06954556	          0.05000035	          0.05000014	          0.26721683	          0.12614085	          0.15422021	          0.09675826	          0.16867255	          0.24421674	          0.21655047	          0.20001722	          0.18199186	          0.24997034	          0.05000000	          0.07491701	          0.14049873	          0.05000003	          0.05000000	          0.05000004	          0.05000004	          0.05002102	          0.05474627	          0.09072398	          0.05671132	          0.27570401	          0.05896855	          0.05896853	          0.05000104	          0.05896853	          0.05896832	          0.12020027	          0.05000013	          0.05000068	          0.09673166	          0.11772863	          0.18328350	          0.19843789	          0.17655528	          0.05000005	          0.06956048	          0.05002282	          0.05000035	          0.09381147	          0.21459221	          0.05896850	          0.05000248	          0.05582232	          0.05000021	          0.12013195	          0.06545307	          0.21357274	          0.22663589	          0.17884178	          0.05000000	          0.05000000	          0.05000000	          0.05000000	          0.05000006	          0.05000005	          0.61816504	          0.32207439	          0.16683656	          0.51335325	          0.56286958	          0.36876790	          0.05000001	          0.12177350	          0.12027551	
          0.02152441	         -2.88081900	          0.90970344	          5.29460462	          0.03392856	          0.86891461	         -0.00209955	        -17.77333743	          0.93420772	          5.45658558	         25.40731857	         -0.01380523	         -2.96119818	         -9.32932098	         -7.70058147	        -10.56390927	          4.47690452	          8.84187808	          2.73105366	          0.90276838	          0.03354379	         28.87985400	         -0.04166140	          1.01534512	         -2.74208706	         -1.75508925	          3.91684010	        -13.53750591	         14.32810040	        -10.53181350	        -13.45937366	         15.12191247	         25.92508360	         15.54917545	         86.51662706	         86.51662706	          0.19128117	          0.06216572	          0.05896846	          0.18391126	          0.11152233	          0.06398471	          0.05000060	          0.05000006	          0.05000010	          0.05000001	          0.06954596	          0.18338409	          0.28887355	          0.11251032	          0.05896838	          0.11474201	          0.16343950	          0.09999406	          0.05000015	          0.05000972	          0.05894604	          0.05896826	          0.26489848	          0.52125138	          0.05896847	          0.05896845	          0.05000040	          0.22657590	          0.13454595	          0.13454606	          0.13454587	          0.14301919	          0.20707389	          0.18361538	          0.16959668	          0.15431284	          0.21195246	          0.05000000	          0.06352294	          0.14692859	          0.05000002	          0.05000002	          0.05000004	          0.05144015	          0.06644105	          0.06533546	          0.14789928	          0.05061125	          0.23687296	          0.05000006	          0.05000006	          0.05000015	          0.05000004	          0.05000003	          0.10191905	          0.05000001	          0.05000006	          0.08201980	          0.09982334	          0.21453248	          0.22857897	          0.17495109	          0.05000684	          0.05898121	          0.05000014	          0.13084904	          0.14787294	          0.19628658	          0.05000002	          0.05000005	          0.18411961	          0.05999345	          0.10186114	          0.06954559	          0.22492628	          0.24641047	          0.17919111	          0.05000004	          0.05000012	          0.05000001	          0.05743250	          0.05896971	          0.05896871	          0.52414851	          0.34535261	          0.18215181	          0.43527752	          0.47726296	          0.31268211	          0.05000000	          0.10325300	          0.10198284	
          0.03228661	         -2.85279750	          0.93567020	          5.40103480	          0.05114379	          0.86734117	         -0.00196312	        -17.41284953	          0.78041839	          5.22002948	         24.79711562	          0.09350070	         -2.67296207	        -11.77742902	         -8.59968455	        -11.19664751	          3.88755745	          9.88509133	          2.23010050	          0.74003008	         -0.01053433	         28.82966234	         -0.19049611	          1.25324595	         -2.51111372	         -1.79649382	          3.58993190	        -13.57763291	         14.52461461	        -11.71249272	        -13.47868004	         15.09559249	         26.77991629	         15.57850324	         86.51662706	         86.51662706	          0.19362344	          0.05271096	          0.05000000	          0.15594629	          0.09456095	          0.05425331	          0.06800978	          0.05000008	          0.05000006	          0.05000008	          0.05896908	          0.18852486	          0.28001546	          0.09539875	          0.05000101	          0.09729103	          0.13858207	          0.08478668	          0.05000031	          0.05000023	          0.05000015	          0.05000020	          0.22461016	          0.48124780	          0.05000002	          0.05000007	          0.05000002	          0.19211604	          0.11408290	          0.11408299	          0.11408284	          0.12126744	          0.17558009	          0.15568937	          0.14380279	          0.13084348	          0.17971671	          0.05000062	          0.11303457	          0.12458233	          0.08682764	          0.15414009	          0.05001942	          0.06924694	          0.05633606	          0.05539863	          0.26488200	          0.25103184	          0.39336808	          0.28022554	          0.20121669	          0.22539755	          0.06954542	          0.08604041	          0.09164123	          0.06954671	          0.05896855	          0.06954545	          0.08464125	          0.18190433	          0.19381454	          0.18591415	          0.05000009	          0.05001147	          0.07176153	          0.19196829	          0.19136351	          0.20518368	          0.05014524	          0.05000020	          0.15611693	          0.05863551	          0.20893879	          0.05896842	          0.19071732	          0.20893398	          0.15193800	          0.05000006	          0.05000009	          0.05000001	          0.05000000	          0.05000107	          0.05000023	          0.57440089	          0.29282808	          0.15444841	          0.67117616	          0.58498965	          0.35290587	          0.05000001	          0.08754929	          0.08647230	
